# xmcd
#
# Track frame offsets:
#	150
#	21352
#	40070
#	74560
#	104890
#	125225
#	141680
#	155395
#	171685
#	187675
#	203785
#	222887
#	236150
#	257455
#	269520
#	285272
#
# Disc length: 3995 seconds
#
# Revision: 0
# Processed by: cddbd v1.4PL0 Copyright (c) Steve Scherf et al.
# Submitted via: EasyCDDAExtractor 4.6.9.1
#
DISCID=020f9910
DTITLE=Various Artist - Blues Tribute to the Grateful Dead
DYEAR=2001
DGENRE=Blues
TTITLE0=Spoonful
TTITLE1=Little Red Rooster
TTITLE2=Hey Pocky Way
TTITLE3=Turn on your Love Lights
TTITLE4=Truckin'
TTITLE5=It Hurts Me Too
TTITLE6=Big Boss Man
TTITLE7=It Must Have Been the Roses
TTITLE8=Next Time You See Me
TTITLE9=Black Peter
TTITLE10=Operator
TTITLE11=Mama Tried
TTITLE12=Casey Jones
TTITLE13=Friend of the Devil
TTITLE14=Touch of Grey
TTITLE15=Ripple
EXTD=
EXTT0=
EXTT1=
EXTT2=
EXTT3=
EXTT4=
EXTT5=
EXTT6=
EXTT7=
EXTT8=
EXTT9=
EXTT10=
EXTT11=
EXTT12=
EXTT13=
EXTT14=
EXTT15=
PLAYORDER=
